<?xml version="1.0" encoding="UTF-8"?><svg id="Layer_2" xmlns="http://www.w3.org/2000/svg" width="150" height="120" viewBox="0 0 150 120"><defs><style>.cls-1{fill:#273aaa;stroke-width:0px;}</style></defs><g id="Layer_1-2"><path class="cls-1" d="M40.58,28.73h1.42c5.68,0,10.29-4.72,10.29-10.53v-7.67c0-5.8-4.62-10.53-10.29-10.53h-1.42c-5.68,0-10.29,4.72-10.29,10.53v7.67c0,5.8,4.62,10.53,10.29,10.53ZM33.34,10.53c0-4.09,3.25-7.41,7.25-7.41h1.42c4,0,7.25,3.33,7.25,7.41v7.67c0,4.09-3.25,7.41-7.25,7.41h-1.42c-4,0-7.25-3.33-7.25-7.41v-7.67Z"/><path class="cls-1" d="M74.3,28.73h1.42c5.68,0,10.29-4.72,10.29-10.53v-7.67c0-5.8-4.62-10.53-10.29-10.53h-1.42c-5.68,0-10.29,4.72-10.29,10.53v7.67c0,5.8,4.62,10.53,10.29,10.53ZM67.05,10.53c0-4.09,3.25-7.41,7.25-7.41h1.42c4,0,7.25,3.33,7.25,7.41v7.67c0,4.09-3.25,7.41-7.25,7.41h-1.42c-4,0-7.25-3.33-7.25-7.41v-7.67Z"/><path class="cls-1" d="M108.03,28.73h1.42c5.68,0,10.3-4.72,10.3-10.53v-7.67c0-5.8-4.62-10.53-10.3-10.53h-1.42c-5.68,0-10.29,4.72-10.29,10.53v7.67c0,5.8,4.62,10.53,10.29,10.53ZM100.78,10.53c0-4.09,3.25-7.41,7.25-7.41h1.42c4,0,7.25,3.33,7.25,7.41v7.67c0,4.09-3.25,7.41-7.25,7.41h-1.42c-4,0-7.25-3.33-7.25-7.41v-7.67Z"/><path class="cls-1" d="M41.28,77.24c-.84,0-1.52.7-1.52,1.56v39.64c0,.86.68,1.56,1.52,1.56s1.52-.7,1.52-1.56v-39.64c0-.86-.68-1.56-1.52-1.56Z"/><path class="cls-1" d="M75.01,77.24c-.84,0-1.52.7-1.52,1.56v39.64c0,.86.68,1.56,1.52,1.56s1.52-.7,1.52-1.56v-39.64c0-.86-.68-1.56-1.52-1.56Z"/><path class="cls-1" d="M62.38,47.43h-8.47c-.84,0-1.52.7-1.52,1.56v69.45c0,.86.68,1.56,1.52,1.56s1.52-.7,1.52-1.56V50.55h5.43v67.89c0,.86.68,1.56,1.52,1.56s1.52-.7,1.52-1.56V48.99c0-.86-.68-1.56-1.52-1.56Z"/><path class="cls-1" d="M108.74,77.24c-.84,0-1.52.7-1.52,1.56v39.64c0,.86.68,1.56,1.52,1.56s1.52-.7,1.52-1.56v-39.64c0-.86-.68-1.56-1.52-1.56Z"/><path class="cls-1" d="M96.11,47.43h-8.47c-.84,0-1.52.7-1.52,1.56v69.45c0,.86.68,1.56,1.52,1.56s1.52-.7,1.52-1.56V50.55h5.43v67.89c0,.86.68,1.56,1.52,1.56s1.52-.7,1.52-1.56V48.99c0-.86-.68-1.56-1.52-1.56Z"/><path class="cls-1" d="M147.84,60.55l-21.8-22.29c-2.75-2.81-6.4-4.36-10.29-4.36H34.27c-3.89,0-7.54,1.55-10.29,4.36L2.16,60.57C.77,62,0,63.9,0,65.91,0,67.93.77,69.82,2.16,71.25c2.88,2.94,7.56,2.94,10.43,0l14.54-14.87v62.06c0,.86.68,1.56,1.52,1.56s1.52-.7,1.52-1.56V52.62c0-.63-.37-1.2-.94-1.44-.57-.24-1.22-.11-1.66.34l-17.14,17.53c-1.69,1.73-4.44,1.73-6.12,0-.82-.84-1.27-1.95-1.27-3.13s.45-2.29,1.27-3.13l21.82-22.31c2.17-2.22,5.06-3.45,8.13-3.45h81.49c3.07,0,5.96,1.22,8.14,3.45l21.8,22.29c1.69,1.73,1.69,4.54,0,6.27-1.63,1.68-4.49,1.68-6.12,0l-17.12-17.51c-.44-.45-1.09-.58-1.66-.34-.57.24-.94.81-.94,1.44v65.83c0,.86.68,1.56,1.52,1.56s1.52-.7,1.52-1.56v-62.06l14.52,14.85c2.78,2.85,7.64,2.85,10.43,0,2.87-2.94,2.87-7.73,0-10.67Z"/></g></svg>