<?xml version="1.0" encoding="UTF-8"?><svg id="Layer_2" xmlns="http://www.w3.org/2000/svg" width="150" height="150" viewBox="0 0 150 150"><defs><style>.cls-1{fill:#fc4d5c;stroke-width:0px;}</style></defs><g id="Layer_1-2"><path class="cls-1" d="M109.52,69.45c-.25-5.78-2.85-10.62-7.71-14.36-4.63-3.57-9.39-4.93-14.17-4.06-5.94,1.09-10.34,5.44-12.64,8.28-2.31-2.84-6.7-7.19-12.64-8.28-4.78-.87-9.54.5-14.17,4.06-4.86,3.75-7.45,8.58-7.71,14.36-.42,9.47,5.78,19.64,11.72,25.09,9.93,9.1,21.45,14.2,21.93,14.41.28.12.57.18.87.18s.59-.06.87-.18c.49-.21,12-5.31,21.93-14.41,5.94-5.45,12.14-15.62,11.72-25.08ZM94.9,91.52c-7.88,7.22-17.08,11.9-19.9,13.25-2.82-1.35-12.02-6.03-19.9-13.25-4.39-4.02-10.78-13.17-10.39-21.89.2-4.53,2.25-8.33,6.1-11.29,2.96-2.28,5.91-3.43,8.8-3.43.65,0,1.3.06,1.95.18,6.94,1.26,11.57,8.78,11.62,8.85.38.63,1.07,1.01,1.82,1.01h0c.75,0,1.44-.39,1.82-1.02.05-.08,4.63-7.57,11.6-8.85,3.5-.65,7.13.44,10.76,3.25,3.85,2.97,5.9,6.76,6.1,11.29.39,8.72-6,17.87-10.39,21.89Z"/><path class="cls-1" d="M55.94,72.06c.09-1.98.95-3.58,2.65-4.88.92-.71,1.08-2.01.35-2.9-.73-.9-2.05-1.05-2.98-.34-2.64,2.04-4.12,4.79-4.26,7.95-.22,5.06,3.06,10.46,6.19,13.34.41.37.93.56,1.45.56.56,0,1.13-.22,1.54-.65.8-.83.76-2.14-.09-2.92-2.47-2.27-5.02-6.59-4.86-10.15Z"/><path class="cls-1" d="M150,79.96c0-5.19-.58-10.4-1.74-15.49-.73-3.22-2.93-5.83-6.03-7.16-3.13-1.34-6.62-1.17-9.6.52l-.05.03c-3.97,2.24-5.98,6.67-5,11.01.82,3.66,1.24,7.39,1.24,11.09,0,5.14-.76,10.14-2.19,14.88-6.78,1.79-11.79,7.85-11.79,15.02,0,1.62.26,3.18.73,4.65-6.28,7.02-14.53,12.44-24.12,15.46-4.35,1.37-7.27,5.28-7.27,9.75,0,3.32,1.58,6.34,4.33,8.3,1.84,1.31,4.06,1.99,6.31,1.99,1.12,0,2.26-.17,3.35-.52,14.56-4.63,26.88-13.25,35.85-24.38,7.25-1.46,12.72-7.74,12.72-15.24,0-1.93-.36-3.78-1.02-5.48,2.79-7.68,4.29-15.92,4.29-24.42ZM134.72,61.43l.06-.03c.99-.56,2.08-.84,3.17-.84.87,0,1.75.18,2.58.54,1.86.8,3.17,2.35,3.6,4.27,1.09,4.8,1.64,9.71,1.64,14.6,0,6.81-1.02,13.43-2.94,19.71-2.85-3.2-7-5.25-11.65-5.36,1.23-4.6,1.88-9.42,1.88-14.35,0-4-.45-8.03-1.34-11.98-.58-2.59.62-5.22,2.99-6.55ZM96.86,145.55c-2.02.64-4.16.32-5.86-.88-1.64-1.17-2.58-2.97-2.58-4.95,0-2.66,1.74-5,4.33-5.81,9.75-3.06,18.2-8.43,24.81-15.37,2.44,3.54,6.34,6.05,10.84,6.71-8.22,9.2-19,16.32-31.54,20.31ZM130.79,121.29c-6.46,0-11.71-5.13-11.71-11.43s5.26-11.43,11.71-11.43,11.71,5.13,11.71,11.43-5.25,11.43-11.71,11.43Z"/><path class="cls-1" d="M26.67,42.15l.11.06s.01,0,.02,0c3.96,2.23,8.87,1.74,12.22-1.21,7.59-6.7,16.84-11.09,26.72-12.79,2.61,1.83,5.81,2.91,9.26,2.91s6.65-1.08,9.26-2.91c9.94,1.71,19.25,6.14,26.86,12.91,1.94,1.72,4.41,2.62,6.93,2.62,1.83,0,3.69-.47,5.4-1.43,2.96-1.67,4.86-4.53,5.23-7.85.36-3.31-.88-6.49-3.4-8.72-10.32-9.13-22.89-15.2-36.33-17.69-2.72-4.79-7.96-8.05-13.96-8.05s-11.24,3.25-13.96,8.05c-13.3,2.46-25.75,8.42-36,17.38-2.58,2.25-3.9,5.59-3.55,8.92.35,3.3,2.24,6.15,5.18,7.8ZM122.45,28.8c1.51,1.33,2.25,3.24,2.03,5.22-.22,1.99-1.36,3.71-3.23,4.76-2.37,1.34-5.29,1.05-7.27-.71-7.47-6.64-16.46-11.2-26.09-13.35,1.92-2.57,3.06-5.73,3.06-9.15,0-1.01-.1-1.99-.29-2.95,11.75,2.61,22.69,8.13,31.79,16.19ZM75,4.13c6.46,0,11.71,5.13,11.71,11.43s-5.26,11.43-11.71,11.43-11.71-5.13-11.71-11.43,5.25-11.43,11.71-11.43ZM27.87,28.51c9.03-7.89,19.87-13.32,31.48-15.89-.19.96-.29,1.94-.29,2.95,0,3.42,1.14,6.58,3.06,9.16-9.57,2.14-18.5,6.66-25.94,13.22-1.99,1.75-4.9,2.03-7.26.7l-1.06,1.79.95-1.85c-1.76-.99-2.89-2.69-3.1-4.66-.22-2.05.57-4.02,2.16-5.41Z"/><path class="cls-1" d="M58.55,129.97c-9.49-2.98-17.65-8.31-23.91-15.22.52-1.54.81-3.19.81-4.9,0-7.29-5.17-13.43-12.12-15.11-1.41-4.72-2.16-9.69-2.16-14.8,0-3.76.43-7.55,1.28-11.26,1-4.36-1.01-8.8-5.07-11.09-2.95-1.66-6.44-1.85-9.56-.51-3.1,1.33-5.3,3.93-6.04,7.15-1.19,5.17-1.79,10.45-1.79,15.72,0,8.66,1.55,17.04,4.44,24.84-.56,1.59-.87,3.29-.87,5.06,0,7.37,5.28,13.56,12.35,15.16,8.98,11.17,21.32,19.83,35.92,24.47,1.09.35,2.23.52,3.35.52,2.25,0,4.47-.68,6.31-1.99,2.75-1.95,4.33-4.97,4.33-8.29,0-4.46-2.92-8.38-7.27-9.74ZM4.24,79.96c0-4.96.57-9.95,1.68-14.81.44-1.92,1.76-3.47,3.61-4.26.82-.35,1.69-.53,2.55-.53,1.11,0,2.22.29,3.25.87,2.38,1.34,3.58,3.98,2.99,6.57-.92,4.01-1.38,8.1-1.38,12.17,0,4.94.65,9.75,1.88,14.36-4.64.2-8.78,2.34-11.57,5.61-1.97-6.36-3.01-13.06-3.01-19.97ZM7.8,109.86c0-6.3,5.26-11.43,11.71-11.43s11.71,5.13,11.71,11.43-5.26,11.43-11.71,11.43-11.71-5.13-11.71-11.43ZM59.01,144.67c-1.7,1.2-3.84,1.52-5.86.89-12.53-3.98-23.3-11.09-31.51-20.27,4.54-.59,8.48-3.05,10.98-6.56,6.59,6.85,14.98,12.16,24.64,15.19,2.59.82,4.33,3.15,4.33,5.81,0,1.98-.94,3.79-2.58,4.95Z"/></g></svg>