<?xml version="1.0" encoding="UTF-8"?><svg id="Layer_2" xmlns="http://www.w3.org/2000/svg" width="130" height="150" viewBox="0 0 130 150"><defs><style>.cls-1{fill:#f7c7d9;stroke-width:0px;}</style></defs><g id="Layer_1-2"><path class="cls-1" d="M55.11,40.44c-3.45,1.16-7.08,1.74-10.8,1.74H2.07c-1.14,0-2.07.81-2.07,1.81s.93,1.81,2.07,1.81h42.24c4.23,0,8.36-.67,12.28-1.98,11.56-3.88,26.02-9.59,29.28-14.72,1.18-1.85,1.82-3.85,1.92-5.94l33.64,3.53c.32.03.63.05.94.05,3.6,0,6.72-2.18,7.47-5.34.79-3.32-1.39-6.64-5.06-7.72L82.27,1.15c-6.76-1.99-14.19-1.38-20.4,1.67l-30.95,15.2H2.07c-1.14,0-2.07.81-2.07,1.81s.93,1.81,2.07,1.81h29.39c.36,0,.7-.08,1.01-.23l31.42-15.43c5.19-2.55,11.41-3.06,17.05-1.4l42.51,12.53c1.69.5,2.69,2.02,2.32,3.55-.37,1.55-2.02,2.65-3.87,2.43l-34.94-3.66c-.66-1.24-1.71-2.33-3.06-3.13-2.55-1.52-5.76-1.82-8.61-.81l-26.04,9.28c-1.06.38-1.57,1.43-1.13,2.36s1.64,1.38,2.7.99l26.04-9.28c1.55-.55,3.32-.38,4.71.45,1.34.8,2.09,2.05,2.07,3.43-.02,1.62-.5,3.18-1.41,4.62-2.01,3.17-12.16,8.06-27.14,13.1Z"/><path class="cls-1" d="M127.93,128.36h-29.39c-.36,0-.7.08-1.01.23l-31.42,15.43c-5.2,2.55-11.41,3.06-17.05,1.4l-42.51-12.53c-1.69-.5-2.69-2.02-2.33-3.55.37-1.58,2.03-2.65,3.87-2.43l34.94,3.66c.66,1.24,1.71,2.33,3.06,3.13,1.55.92,3.35,1.4,5.17,1.4,1.16,0,2.33-.19,3.44-.59l26.04-9.28c1.06-.38,1.57-1.43,1.13-2.36-.43-.93-1.64-1.37-2.7-.99l-26.04,9.28c-1.55.55-3.32.38-4.71-.45-1.34-.8-2.09-2.05-2.07-3.43.02-1.62.5-3.18,1.41-4.62,2.01-3.17,12.16-8.07,27.14-13.1,3.44-1.16,7.07-1.74,10.8-1.74h42.24c1.14,0,2.07-.81,2.07-1.81s-.93-1.81-2.07-1.81h-42.24c-4.24,0-8.37.67-12.28,1.98-11.56,3.88-26.02,9.58-29.28,14.72-1.18,1.85-1.81,3.85-1.91,5.94l-33.64-3.52c-3.98-.44-7.6,1.86-8.42,5.29-.78,3.32,1.39,6.64,5.06,7.72l42.51,12.53c2.61.77,5.33,1.15,8.04,1.15,4.28,0,8.55-.95,12.36-2.82l30.95-15.2h28.85c1.14,0,2.07-.81,2.07-1.81s-.93-1.81-2.07-1.81Z"/><path class="cls-1" d="M91.2,55.39c-4.54-3.13-9.21-4.33-13.85-3.56-5.81.96-10.1,4.76-12.35,7.26-2.25-2.49-6.54-6.3-12.35-7.26-4.66-.76-9.32.43-13.85,3.56-4.75,3.28-7.28,7.52-7.53,12.58-.41,8.3,5.65,17.21,11.46,21.98,9.7,7.98,20.96,12.45,21.43,12.63.27.11.56.16.85.16s.58-.05.85-.16c.47-.19,11.73-4.66,21.44-12.63,5.8-4.77,11.86-13.68,11.45-21.98-.25-5.07-2.78-9.3-7.53-12.59ZM84.45,87.31c-7.7,6.33-16.69,10.43-19.45,11.62-2.76-1.18-11.74-5.28-19.44-11.62-4.29-3.52-10.53-11.54-10.16-19.19.19-3.97,2.2-7.3,5.96-9.9,2.89-2,5.77-3,8.6-3,.64,0,1.27.05,1.91.15,6.78,1.1,11.31,7.69,11.36,7.76.37.55,1.05.89,1.78.89h0c.73,0,1.41-.34,1.78-.89.05-.07,4.52-6.63,11.33-7.75,3.44-.57,6.97.39,10.52,2.84,3.76,2.6,5.77,5.93,5.96,9.9.38,7.64-5.87,15.66-10.15,19.18Z"/><path class="cls-1" d="M46.37,70.26c.08-1.73.93-3.13,2.59-4.28.9-.62,1.05-1.76.34-2.54-.71-.79-2.01-.92-2.91-.3-2.59,1.79-4.02,4.2-4.16,6.97-.22,4.43,2.99,9.17,6.05,11.69.4.33.91.49,1.42.49.55,0,1.1-.19,1.51-.57.78-.73.74-1.87-.09-2.56-2.42-1.99-4.9-5.78-4.75-8.89Z"/></g></svg>