<?xml version="1.0" encoding="UTF-8"?><svg id="Layer_2" xmlns="http://www.w3.org/2000/svg" width="150" height="150" viewBox="0 0 150 150"><defs><style>.cls-1{fill:#fc4d5c;stroke-width:0px;}</style></defs><g id="Layer_1-2"><path class="cls-1" d="M106.74,18.89c-.23-5.85-2.62-10.74-7.09-14.52-4.27-3.61-8.67-5-13.03-4.11-5.47,1.1-9.51,5.5-11.63,8.37-2.12-2.88-6.16-7.27-11.63-8.37-4.39-.88-8.77.5-13.03,4.11-4.47,3.79-6.85,8.67-7.09,14.52-.38,9.58,5.32,19.86,10.78,25.37,9.13,9.21,19.72,14.36,20.17,14.58.25.12.52.18.8.18s.54-.06.8-.18c.45-.21,11.04-5.37,20.17-14.58,5.46-5.51,11.16-15.79,10.78-25.37ZM93.3,41.21c-7.25,7.31-15.7,12.04-18.3,13.41-2.6-1.37-11.05-6.1-18.3-13.41-4.03-4.07-9.91-13.32-9.56-22.14.18-4.58,2.07-8.42,5.61-11.42,2.72-2.31,5.43-3.46,8.09-3.46.6,0,1.2.06,1.79.18,6.38,1.27,10.64,8.88,10.68,8.95.35.64.99,1.03,1.68,1.03h0c.69,0,1.33-.39,1.68-1.03.04-.08,4.26-7.66,10.66-8.95,3.23-.66,6.56.45,9.9,3.28,3.54,3,5.43,6.84,5.61,11.42.35,8.82-5.52,18.07-9.55,22.14Z"/><path class="cls-1" d="M57.47,21.53c.08-2,.88-3.61,2.44-4.94.84-.72.99-2.03.32-2.94-.67-.91-1.89-1.06-2.74-.35-2.43,2.06-3.79,4.84-3.91,8.04-.2,5.12,2.81,10.58,5.69,13.49.38.38.85.57,1.33.57.52,0,1.04-.22,1.42-.66.74-.84.7-2.16-.09-2.96-2.27-2.29-4.61-6.67-4.47-10.26Z"/><path class="cls-1" d="M39.85,65.12c-7.81-9.19-14.66-9.49-19.32-7.81V24.08c0-8.39-6.36-15.22-14.18-15.22-3.5,0-6.35,3.06-6.35,6.82v46.66c0,8.09,2.35,15.82,6.8,22.35l26.22,38.47v24.76c0,1.15.87,2.09,1.95,2.09s1.95-.94,1.95-2.09v-25.44c0-.44-.13-.88-.38-1.23l-26.6-39.02c-3.96-5.81-6.05-12.69-6.05-19.89V15.67c0-1.45,1.1-2.64,2.45-2.64,5.67,0,10.28,4.95,10.28,11.04v35.87c0,.11,0,.21.02.31-.37.6-.65,1.26-.83,1.97-.52,2.07-.14,4.25,1.06,5.97l18.2,26.12c.65.93,1.87,1.12,2.73.42.86-.69,1.04-2,.39-2.93l-18.2-26.12c-.47-.68-.63-1.55-.42-2.37.12-.46.45-1.3,1.38-1.72,5.01-2.28,10.54-.08,16,6.34l.7.83c12.63,14.85,20.98,24.67,20.98,44.59v34.55c0,1.15.87,2.09,1.95,2.09s1.95-.94,1.95-2.09v-34.55c0-21.54-9.23-32.39-22-47.41l-.7-.83Z"/><path class="cls-1" d="M143.65,8.86c-7.82,0-14.18,6.83-14.18,15.22v33.24c-4.66-1.68-11.51-1.38-19.32,7.81l-.71.84c-12.77,15.01-21.99,25.86-21.99,47.4v34.55c0,1.15.87,2.09,1.95,2.09s1.95-.94,1.95-2.09v-34.55c0-19.92,8.34-29.73,20.97-44.58l.71-.83c5.46-6.43,11-8.61,16-6.34.94.42,1.27,1.26,1.38,1.72.21.82.05,1.68-.42,2.37l-18.2,26.12c-.64.93-.47,2.23.39,2.93.85.69,2.08.5,2.73-.42l18.2-26.12c1.2-1.72,1.58-3.89,1.06-5.96-.18-.72-.46-1.38-.83-1.98.01-.1.02-.2.02-.31V24.08c0-6.09,4.61-11.04,10.28-11.04,1.35,0,2.46,1.18,2.46,2.64v46.66c0,7.2-2.09,14.08-6.05,19.89l-26.6,39.02c-.24.36-.38.79-.38,1.23v25.44c0,1.15.87,2.09,1.95,2.09s1.95-.94,1.95-2.09v-24.76l26.22-38.47c4.45-6.53,6.81-14.26,6.81-22.35V15.67c0-3.76-2.85-6.82-6.35-6.82Z"/></g></svg>