<?xml version="1.0" encoding="UTF-8"?><svg id="Layer_2" xmlns="http://www.w3.org/2000/svg" width="150" height="150" viewBox="0 0 150 150"><defs><style>.cls-1{fill:#fc4d5c;stroke-width:0px;}</style></defs><g id="Layer_1-2"><path class="cls-1" d="M108.59,44.2c-8.55-8.2-19.91-12.72-32.01-12.72s-23.47,4.52-32.01,12.72c-8.54,8.2-13.24,19.1-13.24,30.7,0,17.21,10.37,32.67,26.48,39.63v20.2c0,3.93,1.77,7.84,4.85,10.74,3.06,2.88,7.18,4.53,11.29,4.53h5.95c8.3,0,14.8-6.71,14.8-15.27v-20.18c8.06-3.28,14.82-8.6,19.59-15.42,4.94-7.06,7.55-15.43,7.55-24.22,0-11.6-4.7-22.5-13.24-30.7ZM79.88,147.48h-5.95c-7.19,0-13.5-5.96-13.5-12.75v-19.83h31.62v19.83c0,7.15-5.35,12.75-12.17,12.75ZM93.24,112.39s-.07-.01-.11-.01h-33.89c-15.38-6.47-25.29-21.13-25.29-37.47,0-22.55,19.12-40.9,42.62-40.9s42.63,18.35,42.63,40.9c0,16.82-9.94,31.14-25.96,37.49Z"/><path class="cls-1" d="M75.77,13.92c.73,0,1.32-.56,1.32-1.26V1.26c0-.7-.59-1.26-1.32-1.26s-1.32.56-1.32,1.26v11.4c0,.7.59,1.26,1.32,1.26Z"/><path class="cls-1" d="M16.06,71.35H1.32c-.73,0-1.32.56-1.32,1.26s.59,1.26,1.32,1.26h14.75c.73,0,1.32-.56,1.32-1.26s-.59-1.26-1.32-1.26Z"/><path class="cls-1" d="M148.68,71.35h-14.75c-.73,0-1.32.56-1.32,1.26s.59,1.26,1.32,1.26h14.75c.73,0,1.32-.56,1.32-1.26s-.59-1.26-1.32-1.26Z"/><path class="cls-1" d="M120.91,113.57c-.51-.49-1.35-.49-1.86,0-.51.49-.51,1.29,0,1.78l9.59,9.19c.26.25.59.37.93.37s.67-.12.93-.37c.51-.49.51-1.29,0-1.78l-9.59-9.19Z"/><path class="cls-1" d="M31.72,31.67c.26.25.59.37.93.37s.67-.12.93-.37c.51-.49.51-1.29,0-1.78l-9.59-9.19c-.51-.49-1.35-.49-1.86,0-.51.49-.51,1.29,0,1.78l9.59,9.19Z"/><path class="cls-1" d="M121,29.84c.34,0,.67-.12.93-.37l7.3-7c.51-.49.51-1.29,0-1.78-.51-.49-1.35-.49-1.86,0l-7.3,7c-.51.49-.51,1.29,0,1.78.26.25.59.37.93.37Z"/><path class="cls-1" d="M32.71,111.41l-10.58,10.14c-.51.49-.51,1.29,0,1.78.26.25.59.37.93.37s.67-.12.93-.37l10.58-10.14c.51-.49.51-1.29,0-1.78-.51-.49-1.35-.49-1.86,0Z"/><path class="cls-1" d="M86.18,124.35h-19.14c-.73,0-1.32.56-1.32,1.26s.59,1.26,1.32,1.26h19.14c.73,0,1.32-.56,1.32-1.26s-.59-1.26-1.32-1.26Z"/><path class="cls-1" d="M82.51,132.98h-12.95c-.73,0-1.32.56-1.32,1.26s.59,1.26,1.32,1.26h12.95c.73,0,1.32-.56,1.32-1.26s-.59-1.26-1.32-1.26Z"/><path class="cls-1" d="M111.71,66.99c.04-4.06-2.48-7.66-6.34-9.18-1.04-4.14-4.74-7.15-9.21-7.47-1.92-2.36-4.86-3.77-8.01-3.8-.17,0-.34,0-.51,0-1.72-1.18-3.74-1.81-5.87-1.83-2.18-.02-4.29.62-6.04,1.82-1.44-.72-3.03-1.11-4.67-1.12-2.71-.02-5.31.98-7.24,2.78-.22-.02-.45-.03-.67-.03-3.01-.02-5.82,1.18-7.79,3.33-5.04.6-8.94,4.74-8.99,9.67,0,.15,0,.29,0,.43-3.78,2.11-6.11,5.92-6.16,10.16-.06,6.55,5.45,11.94,12.29,12,2.59.02,5.06-.71,7.14-2.08,1.46,4.55,5.84,7.8,11,7.84.99,0,1.96-.1,2.91-.32,4.01,2.58,6.02,6.4,5.98,11.37l-.05,5.03c0,.33.13.66.38.89.24.24.58.37.93.38l9.34.08h.01c.72,0,1.31-.56,1.32-1.25l.11-10.86c.82.18,1.66.28,2.51.28.04,0,.07,0,.11,0,6.26,0,11.4-4.78,11.61-10.76,3.5-1.6,5.82-5.03,5.85-8.79.01-1.49-.32-2.96-.98-4.29.68-1.32,1.05-2.79,1.07-4.28ZM108.01,71.87c.66,1.11,1,2.38.98,3.66-.02,2.37-1.27,4.56-3.24,5.9-.79-7.65-9.62-10.96-10.03-11.1-.68-.25-1.44.08-1.69.73-.26.65.08,1.38.76,1.63.37.14,9.04,3.41,8.35,10.71,0,.01,0,.03,0,.04,0,.05,0,.09,0,.14,0,.16.01.31,0,.47-.05,4.75-4.12,8.56-9.07,8.53-1.15-.01-2.27-.23-3.33-.64-.4-.16-.86-.12-1.23.12-.36.23-.58.62-.59,1.04l-.11,11.3-6.71-.06.04-3.77c.07-7.6-4.14-11.72-7.69-13.83-.32-.19-.72-.24-1.08-.13-.87.26-1.79.38-2.71.37-4.61-.04-8.42-3.38-8.86-7.77-.05-.49-.39-.9-.87-1.07-.48-.16-1.02-.05-1.38.3-1.87,1.81-4.36,2.8-7.03,2.77-5.39-.05-9.73-4.29-9.68-9.45.03-3,1.52-5.73,3.98-7.45.6,1.66,1.44,3.49,2.5,5.46.23.43.69.68,1.17.68.2,0,.41-.05.6-.14.65-.32.9-1.08.57-1.7-1.19-2.22-2.08-4.24-2.65-6,.04-.15.06-.31.03-.47-.04-.3-.06-.63-.06-.97.04-3.8,3.15-6.97,7.09-7.22.04,0,.09,0,.13-.01,2.71.23,5.06.94,5.1.95.13.04.27.06.4.06.56,0,1.07-.34,1.25-.88.22-.66-.16-1.37-.85-1.59-.08-.02-1.32-.4-3.09-.72,1.21-.72,2.62-1.11,4.1-1.1.34,0,.68.03,1,.07.44.06.88-.09,1.17-.4,1.46-1.56,3.55-2.45,5.74-2.42,1.46.01,2.87.42,4.09,1.18.49.31,1.13.26,1.58-.1,1.4-1.16,3.2-1.79,5.05-1.77.6,0,1.19.08,1.76.21-3.45,2.19-3.74,7.83-3.75,8.1-.03.69.53,1.28,1.26,1.31.02,0,.04,0,.06,0,.7,0,1.28-.53,1.31-1.21,0-.06.35-5.73,3.41-6.46.26-.06.47-.19.64-.36.26.19.59.28.92.26.24-.02.5-.03.76-.03,2.51.02,4.84,1.22,6.25,3.22.24.34.66.55,1.09.55,3.72.03,6.86,2.61,7.46,6.12.08.47.42.85.89,1,3.18.99,5.29,3.81,5.26,7.02-.01,1.29-.38,2.55-1.06,3.64-.24.39-.25.87-.01,1.26Z"/><path class="cls-1" d="M95.13,62.79c-.6-.39-1.42-.24-1.83.34-2.71,3.83-5.59,5.78-8.56,5.78h-.03c-5.19-.03-9.29-5.88-9.34-5.94-.4-.58-1.22-.74-1.82-.36-.61.38-.77,1.16-.38,1.75.16.23,3.2,4.59,7.79,6.35,3.71,1.61,2.93,7.6,2.92,7.69-.1.69.41,1.32,1.12,1.42.06,0,.12.01.18.01.65,0,1.21-.46,1.3-1.09.03-.23.57-4.21-1.16-7.32,3.67-.22,7.09-2.52,10.15-6.86.41-.58.25-1.36-.35-1.75Z"/><path class="cls-1" d="M89.29,58.14c-.72.05-1.27.65-1.22,1.34.05.69.67,1.21,1.4,1.17,1.34-.09,5.17.1,6.77,1.96.84.98,1,2.33.5,4.14-.19.67.23,1.36.94,1.54.11.03.23.04.34.04.58,0,1.11-.37,1.27-.94.72-2.62.38-4.77-1.02-6.39-2.78-3.23-8.72-2.89-8.98-2.87Z"/><path class="cls-1" d="M78.99,61.2c.66.74.84,1.74.57,3.06-.14.68.32,1.35,1.03,1.48.09.02.17.02.26.02.61,0,1.16-.41,1.29-1.01.43-2.09.05-3.83-1.14-5.18-2.4-2.72-7.22-2.6-7.42-2.6-.73.02-1.3.6-1.27,1.3s.63,1.24,1.36,1.22c.04,0,3.77-.06,5.33,1.71Z"/><path class="cls-1" d="M54.23,62.37c1.97.62,3.77.93,5.39.93s3.1-.32,4.36-.97c2.66-1.38,3.35-3.73,3.38-3.83.19-.67-.22-1.37-.93-1.55-.7-.18-1.42.21-1.61.88-.02.06-.47,1.46-2.14,2.31-1.79.9-4.43.84-7.62-.16-.69-.22-1.43.14-1.66.8-.23.66.15,1.37.84,1.59Z"/><path class="cls-1" d="M55.81,66.54c-2.25,1.57-3.51,3.27-3.74,5.05-.24,1.85.74,3.05.85,3.18.26.3.64.46,1.02.46.29,0,.59-.09.84-.29.56-.44.64-1.24.18-1.77,0,0-.37-.5-.27-1.26.14-1.05,1.06-2.19,2.68-3.32,4.04-2.83,8.49,2.04,8.67,2.25.47.53,1.3.59,1.85.14.55-.45.62-1.25.15-1.78-2.13-2.39-7.42-6.01-12.23-2.65Z"/><path class="cls-1" d="M85.99,82.41c-.56-.44-1.38-.37-1.85.16-.47.53-.39,1.33.16,1.78.12.1,2.87,2.27,6.4,2.27.31,0,.62-.02.94-.05,2.39-.27,4.49-1.55,6.23-3.79.43-.56.31-1.35-.27-1.76-.58-.42-1.41-.3-1.84.26-1.29,1.66-2.77,2.6-4.41,2.79-2.83.33-5.33-1.63-5.36-1.65Z"/></g></svg>