<?xml version="1.0" encoding="UTF-8"?><svg id="Layer_2" xmlns="http://www.w3.org/2000/svg" width="150" height="150" viewBox="0 0 150 150"><defs><style>.cls-1{fill:#f7c7d9;stroke-width:0px;}</style></defs><g id="Layer_1-2"><path class="cls-1" d="M113.29,6.09C72.07-11.61,11.25,10.82,14.83,53.21c.4,8.63-5.29,14.59-10.54,21.69-6.48,8.15-6.57,14.66,6.36,17.82.39.17,1.32.15.91.7-.98,1.87-.91,4.02.19,5.84.59.93,1.7,1.7,2.24,2.45,0,.23-.07.46-.18.67-1.2,1.92-1.31,4.2-.29,6.2.95,1.47,2.56,2.55,4.47,3-1.14,5-1.6,11.33,2.72,14.91,5.2,4.82,14.55,5.23,19.44,5.06,2.71.1,7.62-.72,9.63.35,1.44.85,3.42.56,4.43-.65,1.01-1.21.67-2.88-.77-3.73-4.02-2.3-8.96-1.31-13.38-1.32-6.77.25-12.13-.97-14.66-3.31-2.41-2-2.02-5.8-1.44-8.9.39-1.82,1.42-6.65-4.07-7.51-.87-.3-.89-.26-.69-.96l.58-1.38c.53-1.15.66-2.4.38-3.61-.4-1.21-1.16-2.31-2.21-3.21-.97-.77-.86-1.08-.37-2.26,3.13-7.98-6.38-6.24-11.1-10.11-1.11-1.42,2.12-5.78,3.2-7.25,5.7-7.72,11.81-14.07,11.48-24.7C18.1,14.44,73.32-4.74,110.46,10.89c37.85,15.44,43.8,58.94,15.34,83.99-3.08,2.98-7.3,7.06-4.73,12.43,1.63,3.4.63,7.29-2.53,9.81-12.76,11.68-28.38,20.88-45.79,26.97-5.01,1.84-8.92-1.16-11.33-4-1.05-1.19-3.04-1.43-4.45-.55-1.37.86-1.69,2.48-.72,3.66,5.14,5.95,11.85,8.35,19.08,5.79,18.24-6.39,34.61-16.05,47.97-28.3,4.72-4.02,6.18-10,3.73-15.26-1.05-2.2.35-3.91,3.58-7.03,31.25-27.73,24.22-75.1-17.31-92.3Z"/><path class="cls-1" d="M106.78,31.15c1.27,1.02,3.28.98,4.5-.09,1.18-1.04,1.17-2.68-.02-3.71-8.14-6.8-19.27-10.44-30.73-10.04-21.65.96-38.87,15.65-39.7,33.89-.36,10.9,5.41,21.3,15.57,28.07,2.17,1.4,3.66,3.42,4.17,5.69l1.48,7.52v10.51c0,4.43,4.27,8.03,9.54,8.03h21.18c5.27,0,9.54-3.6,9.54-8.03v-10.5l1.45-7.29c.54-2.4,2.1-4.56,4.4-6.06,9.73-6.58,15.38-16.53,15.37-27.04-.17-3.36-.82-15.66-6.81-13.88-1.64.53-2.45,2.08-1.82,3.46,0,0,0,0,0,0,5.31,11.89.98,25.3-10.74,33.29-3.5,2.32-5.88,5.65-6.67,9.34l-1.05,5.26h-28.52l-1.08-5.49c-.76-3.57-3.07-6.78-6.47-9-8.6-5.72-13.48-14.53-13.18-23.75.77-25.33,38.32-38.32,59.6-20.18ZM92.76,105.65h-21.18c-1.76,0-3.18-1.2-3.18-2.68v-8.05h27.54v8.05c0,1.48-1.42,2.68-3.18,2.68Z"/><path class="cls-1" d="M80.77,67.88c1.58.65,3.48.1,4.26-1.22l7.95-13.64c.76-1.34.09-2.95-1.51-3.59-.42-.17-.88-.26-1.35-.26h-10.71l5.59-9.24c.77-1.33.11-2.93-1.47-3.58-1.54-.63-3.39-.12-4.19,1.15l-7.95,13.14c-.8,1.32-.18,2.93,1.39,3.6.45.19.94.29,1.44.29h10.8l-5.7,9.78c-.77,1.33-.12,2.93,1.45,3.58,0,0,0,0,0,0Z"/></g></svg>