<?xml version="1.0" encoding="UTF-8"?><svg id="Layer_2" xmlns="http://www.w3.org/2000/svg" width="130" height="150" viewBox="0 0 130 150"><defs><style>.cls-1{fill:#273aaa;stroke-width:0px;}</style></defs><g id="Layer_1-2"><path class="cls-1" d="M5.16,55.52c1.37.68,2.83,1.02,4.27,1.02,2.78,0,5.5-1.22,7.41-3.5,5.37-6.44,17.36-17.22,37.64-17.63,3.04,1.92,6.65,3.04,10.52,3.04s7.48-1.12,10.52-3.04c20.28.41,32.27,11.19,37.64,17.63,1.9,2.28,4.62,3.5,7.4,3.5,1.45,0,2.91-.33,4.27-1.02,4.53-2.27,6.44-7.79,4.27-12.3C111.1,5.84,75.86.78,67.04.1c-.53-.05-1.07-.08-1.61-.09-.26,0-.4-.01-.42-.01s-.17,0-.42.01c-.54.01-1.08.04-1.61.09C54.14.78,18.9,5.84.9,43.22c-2.17,4.51-.26,10.03,4.27,12.3ZM56.33,32.06c-.11-.1-.24-.19-.38-.26-4-2.8-6.61-7.39-6.61-12.57,0-8.04,6.28-14.66,14.27-15.35.47-.03.83-.05,1.06-.06.11,0,.22,0,.33,0,0,0,0,0,0,0s0,0,0,0c.11,0,.22,0,.33,0,.24,0,.6.02,1.06.06,7.99.7,14.27,7.31,14.27,15.35,0,5.12-2.55,9.66-6.46,12.46-.25.09-.46.25-.64.44-2.46,1.59-5.41,2.52-8.56,2.52s-6.19-.95-8.67-2.59ZM125.61,44.85c1.28,2.67.15,5.93-2.53,7.27-2.36,1.17-5.2.56-6.92-1.5-5.42-6.49-17.08-17.09-36.42-18.8,2.99-3.38,4.8-7.78,4.8-12.6s-1.99-9.65-5.24-13.09c13.74,3.74,34.15,13.45,46.32,38.71ZM4.39,44.85C16.56,19.59,36.97,9.88,50.71,6.14c-3.25,3.43-5.24,8.04-5.24,13.09s1.81,9.22,4.8,12.6c-19.34,1.71-31,12.3-36.41,18.79-1.73,2.07-4.57,2.69-6.93,1.51-2.68-1.35-3.81-4.61-2.53-7.27Z"/><path class="cls-1" d="M124.84,94.48c-3.99-2.01-8.79-.98-11.68,2.48-5.37,6.43-17.36,17.22-37.64,17.63-3.04-1.92-6.65-3.04-10.52-3.04s-7.48,1.12-10.52,3.04c-20.28-.41-32.27-11.19-37.64-17.63-2.88-3.46-7.69-4.48-11.68-2.48-4.52,2.27-6.44,7.79-4.27,12.3,18.01,37.38,53.23,42.44,62.06,43.12.53.05,1.07.08,1.62.09.25,0,.4.01.42.01s.17,0,.42-.01c.55-.01,1.09-.04,1.62-.09,8.83-.68,44.06-5.74,62.07-43.12,2.17-4.51.26-10.03-4.27-12.3ZM73.8,118.03s.09.06.13.09c4.06,2.79,6.73,7.42,6.73,12.65,0,8.04-6.29,14.66-14.27,15.35-.47.03-.83.05-1.06.06-.11,0-.22,0-.33,0,0,0,0,0,0,0s0,0,0,0c-.11,0-.22,0-.33,0-.24,0-.6-.02-1.06-.06-7.99-.7-14.27-7.31-14.27-15.35,0-8.5,7.03-15.42,15.66-15.42,3.26,0,6.29.99,8.8,2.67ZM4.39,105.15c-1.28-2.67-.15-5.93,2.53-7.27,2.36-1.18,5.2-.56,6.93,1.5,5.41,6.49,17.08,17.09,36.42,18.8-2.98,3.38-4.8,7.78-4.8,12.6s1.99,9.65,5.24,13.09c-13.74-3.74-34.15-13.45-46.32-38.71ZM125.61,105.15c-12.17,25.26-32.58,34.98-46.32,38.71,3.25-3.43,5.24-8.03,5.24-13.09s-1.81-9.22-4.8-12.6c19.34-1.71,31-12.3,36.42-18.8,1.72-2.07,4.57-2.69,6.92-1.5,2.68,1.35,3.82,4.61,2.53,7.27Z"/><path class="cls-1" d="M86.01,55.29c-3.67-2.85-7.45-3.93-11.24-3.24-4.52.84-7.9,4.06-9.77,6.31-1.87-2.26-5.25-5.48-9.77-6.31-3.79-.69-7.58.39-11.24,3.24-3.85,2.99-5.9,6.85-6.1,11.46-.33,7.51,4.54,15.57,9.2,19.88,7.75,7.16,16.74,11.18,17.12,11.35.25.11.52.17.79.17s.54-.05.79-.17c.38-.17,9.37-4.18,17.12-11.35,4.66-4.31,9.53-12.37,9.2-19.88-.2-4.62-2.25-8.47-6.1-11.46ZM80.26,83.86c-5.98,5.53-12.95,9.15-15.26,10.28-2.31-1.13-9.28-4.75-15.26-10.28-3.37-3.12-8.28-10.2-7.98-16.94.15-3.46,1.71-6.37,4.63-8.64,2.24-1.75,4.48-2.62,6.66-2.62.49,0,.97.04,1.46.13,5.26.96,8.8,6.74,8.83,6.8.35.58.98.93,1.66.93h0c.69,0,1.32-.36,1.66-.94.04-.06,3.53-5.82,8.82-6.8,2.64-.5,5.38.35,8.13,2.49,2.92,2.27,4.48,5.18,4.63,8.64.29,6.74-4.61,13.82-7.98,16.94Z"/><path class="cls-1" d="M50.48,68.83c.06-1.46.7-2.64,1.95-3.61.84-.65.98-1.85.32-2.68-.66-.82-1.88-.96-2.72-.31-2.12,1.65-3.3,3.88-3.42,6.44-.18,4.05,2.42,8.37,4.9,10.67.37.34.85.52,1.32.52.51,0,1.03-.2,1.41-.6.73-.77.69-1.97-.09-2.69-1.88-1.73-3.81-5.03-3.69-7.73Z"/></g></svg>