<?xml version="1.0" encoding="UTF-8"?><svg id="Layer_2" xmlns="http://www.w3.org/2000/svg" width="150" height="150" viewBox="0 0 150 150"><defs><style>.cls-1{fill:#f7c7d9;stroke-width:0px;}</style></defs><g id="Layer_1-2"><path class="cls-1" d="M33.32,115.85h-8.7c-12.64,0-22.93,9.82-22.93,21.88v10.38c0,1.04.88,1.88,1.97,1.88s1.97-.84,1.97-1.88v-10.38c0-9.99,8.52-18.12,18.99-18.12h8.7c10.47,0,18.99,8.13,18.99,18.12v10.38c0,1.04.88,1.88,1.97,1.88s1.97-.84,1.97-1.88v-10.38c0-12.07-10.29-21.88-22.93-21.88Z"/><path class="cls-1" d="M29.97,110.57c7.94,0,14.41-6.17,14.41-13.75v-10.15c0-7.58-6.46-13.75-14.41-13.75h-2.01c-7.94,0-14.41,6.17-14.41,13.75v10.15c0,7.58,6.46,13.75,14.41,13.75h2.01ZM17.5,96.82v-10.15c0-5.51,4.69-9.98,10.46-9.98h2.01c5.77,0,10.46,4.48,10.46,9.98v10.15c0,5.51-4.69,9.98-10.46,9.98h-2.01c-5.77,0-10.46-4.48-10.46-9.98Z"/><path class="cls-1" d="M118.42,100.49h-12.3c-17.42,0-31.58,13.52-31.58,30.15v17.48c0,1.04.88,1.88,1.97,1.88s1.97-.84,1.97-1.88v-17.48c0-14.55,12.4-26.38,27.64-26.38h12.3c15.24,0,27.64,11.84,27.64,26.38v17.48c0,1.04.88,1.88,1.97,1.88s1.97-.84,1.97-1.88v-17.48c0-16.62-14.17-30.15-31.58-30.15Z"/><path class="cls-1" d="M110.84,91.47h2.85c10.77,0,19.54-8.37,19.54-18.65v-14.34c0-10.28-8.76-18.65-19.54-18.65h-2.85c-10.77,0-19.54,8.36-19.54,18.65v14.34c0,10.28,8.76,18.65,19.54,18.65ZM95.25,58.48c0-8.21,7-14.89,15.6-14.89h2.85c8.6,0,15.6,6.68,15.6,14.89v14.34c0,8.21-7,14.89-15.6,14.89h-2.85c-8.6,0-15.6-6.68-15.6-14.89v-14.34Z"/><path class="cls-1" d="M84.82,31.23C84.82,14.01,70.14,0,52.1,0h-19.38C14.68,0,0,14.01,0,31.23s14.68,31.22,32.72,31.22h19.38c.13,0,.26,0,.42,0l12.59,12.01c.38.36.88.55,1.39.55.25,0,.51-.05.75-.14.74-.29,1.22-.98,1.22-1.74v-14.87c10.11-5.58,16.34-15.83,16.34-27.02ZM65.58,55.48c-.64.33-1.05.97-1.05,1.66v11.44l-9.85-9.4c-.37-.35-.87-.55-1.39-.55-.03,0-.05,0-.08,0-.02,0-.5.03-.52.03l-19.98.03c-15.87,0-28.78-12.32-28.78-27.46S16.85,3.76,32.72,3.76h19.38c15.87,0,28.77,12.32,28.77,27.46,0,10.18-5.86,19.47-15.29,24.25Z"/><path class="cls-1" d="M21.32,25.65c-1.09,0-1.97.84-1.97,1.88v5.19c0,1.04.88,1.88,1.97,1.88s1.97-.84,1.97-1.88v-5.19c0-1.04-.88-1.88-1.97-1.88Z"/><path class="cls-1" d="M42.41,25.65c-1.09,0-1.97.84-1.97,1.88v5.19c0,1.04.88,1.88,1.97,1.88s1.97-.84,1.97-1.88v-5.19c0-1.04-.88-1.88-1.97-1.88Z"/><path class="cls-1" d="M63.5,25.65c-1.09,0-1.97.84-1.97,1.88v5.19c0,1.04.88,1.88,1.97,1.88s1.97-.84,1.97-1.88v-5.19c0-1.04-.88-1.88-1.97-1.88Z"/></g></svg>